<svg xmlns="http://www.w3.org/2000/svg" viewBox="0 0 1500 1500" width="1500" height="1500"><path fill="#FFF" d="M0 0h1500v1500H0z"/><g transform="translate(154.0 219.0) rotate(-8.09857757878107 570.0 539.5) scale(1.425 1.4272486772486772)"><svg width="800" height="756" viewBox="0 0 800 756"><clipPath id="a"><path d="M0 0h800v756H0z"/></clipPath><g clip-path="url(#a)"><path d="M681.823 151.722C456.184 24.839 134.115-74.748 32.866 75.567-81.512 245.368 137.48 372.916 161.328 548.325c26.174 192.568 245.997 283.514 410.023 129.708 205.697-192.9 335.488-399.76 110.472-526.311z" fill="#FFA91C"/></g></svg></g><g transform="translate(214.0 290.0) rotate(0.0 537.0 424.5) scale(1.8485370051635113 1.8537117903930131)"><svg width="581" height="458" viewBox="0 0 581 458"><clipPath id="b"><path d="M0 0h581v458H0z"/></clipPath><g clip-path="url(#b)"><path d="M570.657 457H10.343a8.304 8.304 0 0 1-5.897-2.416A8.295 8.295 0 0 1 2 448.7V10.305A8.3 8.3 0 0 1 10.343 2h560.314a8.304 8.304 0 0 1 7.709 5.117 8.303 8.303 0 0 1 .634 3.188V448.8a8.283 8.283 0 0 1-8.343 8.2z" fill="#fff"/><path d="M578.7 30.448v-19.5a8.276 8.276 0 0 0-8.3-8.3H10.5a8.28 8.28 0 0 0-8.3 8.3v19.5z" fill="#FFA91C"/><g fill="#1a1a1a"><path d="m566.621 16.5 4.94-4.939A1.502 1.502 0 0 0 570.5 9a1.5 1.5 0 0 0-1.061.44l-4.939 4.94-4.939-4.94a1.5 1.5 0 1 0-2.122 2.121l4.94 4.94-4.94 4.938a1.502 1.502 0 0 0 2.122 2.122l4.939-4.94 4.939 4.94a1.5 1.5 0 1 0 2.122-2.122z"/><path d="M571.072 0H9.928A9.878 9.878 0 0 0 0 9.806v438.388A9.877 9.877 0 0 0 9.928 458h561.144a9.828 9.828 0 0 0 9.928-9.7V9.806A9.879 9.879 0 0 0 571.072 0zM9.928 3h561.144A6.872 6.872 0 0 1 578 9.806V30H3V9.806A6.875 6.875 0 0 1 9.928 3zM578 33v55H3V33zm-6.928 422H9.928A6.875 6.875 0 0 1 3 448.194V91h575v357.3a6.826 6.826 0 0 1-6.928 6.7z"/><path d="M544.5 24h-6a4.507 4.507 0 0 1-4.5-4.5v-6a4.506 4.506 0 0 1 4.5-4.5h6a4.507 4.507 0 0 1 4.5 4.5v6a4.506 4.506 0 0 1-4.5 4.5zm-6-12a1.502 1.502 0 0 0-1.5 1.5v6a1.501 1.501 0 0 0 1.5 1.5h6a1.502 1.502 0 0 0 1.5-1.5v-6a1.501 1.501 0 0 0-1.5-1.5zm-14 12h-12a1.502 1.502 0 0 1-1.061-2.56A1.5 1.5 0 0 1 512.5 21h12a1.502 1.502 0 0 1 1.061 2.56 1.5 1.5 0 0 1-1.061.44zm-12 52h-366a5.507 5.507 0 0 1-5.5-5.5v-20a5.508 5.508 0 0 1 5.5-5.5h366a5.507 5.507 0 0 1 5.5 5.5v20a5.508 5.508 0 0 1-5.5 5.5zm-366-28a2.501 2.501 0 0 0-2.5 2.5v20a2.5 2.5 0 0 0 2.5 2.5h366a2.501 2.501 0 0 0 2.5-2.5v-20a2.5 2.5 0 0 0-2.5-2.5zm-89 26a1.5 1.5 0 0 1-.978-2.638L69.195 60.5 56.523 49.64a1.5 1.5 0 1 1 1.954-2.278l14 12a1.5 1.5 0 0 1 0 2.278l-14 12a1.5 1.5 0 0 1-.977.36zm-24 0a1.492 1.492 0 0 1-.976-.36l-14-12a1.5 1.5 0 0 1 0-2.278l14-12a1.501 1.501 0 0 1 1.954 2.278L21.805 60.5l12.672 10.862A1.5 1.5 0 0 1 33.5 74zM118 59a1.502 1.502 0 0 0-1.5 1.5 10.069 10.069 0 0 1-18.306 5.866A10.069 10.069 0 0 1 109.9 51.118l-2.879.96a1.502 1.502 0 0 0-.195 2.764 1.5 1.5 0 0 0 1.145.081l6-2a1.497 1.497 0 0 0 1.025-1.476 1.508 1.508 0 0 0-.158-.618l-3-6a1.501 1.501 0 0 0-2.684 1.342l.923 1.846a12.994 12.994 0 0 0-16.558 12.787A12.991 12.991 0 0 0 119.5 60.5 1.501 1.501 0 0 0 118 59zm446.061 12.939-8.45-8.449a11.544 11.544 0 0 0-1.54-15.706 11.542 11.542 0 1 0-.581 17.827l8.449 8.45a1.5 1.5 0 1 0 2.122-2.122zM538 56.5a8.5 8.5 0 1 1 8.5 8.5 8.511 8.511 0 0 1-8.5-8.5z"/></g></g></svg></g><g transform="translate(739.0 571.0) rotate(0.0 324.5 324.5) scale(2.17056856187291 2.17056856187291)"><svg width="299" height="299" viewBox="0 0 299 299"><clipPath id="c"><path d="M0 0h298.972v298.992H0z"/></clipPath><g clip-path="url(#c)"><path d="M88.207 11.601c-3.135-.215-9.19 3.35-10.523 6.7-1.288 3.351-1.46 8.2-1.03 8.247s13.4-1.976 13.4-1.976l13.486.3c.044.002-.6-12.282-15.333-13.27z" fill="#FFA91C"/><path d="M88.207 11.601c-3.135-.215-9.19 3.35-10.523 6.7-1.288 3.351-1.46 8.2-1.03 8.247.171 0 2.061-.258 4.423-.6 1.117-3.694 4.253-11.554 11.47-13.616a18.255 18.255 0 0 0-4.34-.73z" fill="#fff"/><path d="M88.508 81.913c-.73.086-20.187 2.233-19.242 4.51.945 2.233 21.39 1.89 23.451 1.5S117.2 83.89 117.2 83.89s6.958-2.1 5.154-3.007c-1.761-.902-19.454-1.03-33.846 1.031z" fill="#FFA91C"/><path d="M219.219 207.065c17.08 0 30.926-13.846 30.926-30.926s-13.846-30.926-30.926-30.926-30.926 13.846-30.926 30.926 13.846 30.926 30.926 30.926z" fill="#1a1a1a"/><path d="M237.379 177.954A17.916 17.916 0 0 0 221.1 158.54c-.987-.086-19.671 4.081-46.087-1.89s-43.9-25.427-51.2-40.718-10.438-35.822-10.438-35.822a86.604 86.604 0 0 0-13.143-.3c-8.032.344-21.52 4.38-21.52 4.38l2.235 16.366s8.2 36.509 25.513 55.709c17.313 19.2 36.939 31.054 62.28 37.153 22.851 5.5 45.658 1.718 49.91.9a17.992 17.992 0 0 0 18.729-16.364z" fill="#fff"/><path d="M218.652 195.564a1.324 1.324 0 0 1-1.288-1.074 1.24 1.24 0 0 1 1.073-1.461c14.389-2.362 17.224-10.523 17.654-15.162a16.652 16.652 0 0 0-15.119-18.039 30.662 30.662 0 0 0-3.952-.086 1.29 1.29 0 0 1-1.058-2.138c.226-.258.544-.416.886-.439a36.939 36.939 0 0 1 4.338.085 19.276 19.276 0 0 1 17.482 20.832c-.816 9.192-8.032 15.549-19.8 17.482z" fill="#1a1a1a"/><path d="M220.628 193.845a1.272 1.272 0 0 0-.577-.793 1.293 1.293 0 0 0-.969-.151 106.763 106.763 0 0 1-19.372 2.1 94.1 94.1 0 0 1 1.847-33.975 82.618 82.618 0 0 0 16.923-1.5 1.34 1.34 0 0 0 .988-1.546 1.323 1.323 0 0 0-1.546-.988 91.616 91.616 0 0 1-21.991 1.288 97.427 97.427 0 0 1-46.99-14.6c-15.548-9.879-24.053-26.63-28.434-38.958a113.328 113.328 0 0 1-5.841-24.783 1.295 1.295 0 0 0-2.577.258 109.727 109.727 0 0 0 4.166 19.844c-3.092-1.632-8.547-3.393-16.236-2.02-9.578 1.762-14.39 7.131-16.278 9.923A123.893 123.893 0 0 1 80.047 84.1a1.284 1.284 0 0 0-1.289-1.246h-.043a1.24 1.24 0 0 0-1.245 1.336 125.907 125.907 0 0 0 4.853 28.52c4.166 14.861 12.843 36.079 30.539 52.83 24.053 22.808 51.8 29.723 70.87 31.484 4.51.43 8.763.6 12.628.6 7.846.1 15.68-.649 23.366-2.233a1.364 1.364 0 0 0 .902-1.546zm-90.242-17.7c-1.2-10.007 1.418-18.082 7.817-24.01a29.082 29.082 0 0 1 9.879-5.97 95.562 95.562 0 0 0 21.476 9.922 57.788 57.788 0 0 0-11.124 33.245 113.577 113.577 0 0 1-28.048-13.183zM84.6 111.292c.187-.13.335-.308.43-.515a16.405 16.405 0 0 1 3.35-4.3 23.555 23.555 0 0 1 12.113-5.927c10.952-2.02 16.751 3.093 17.009 3.35.171.559.386 1.074.558 1.633a95.842 95.842 0 0 0 10.652 21.518c-3.522-.73-9.492-.987-16.751 2.663-8.676 4.381-12.027 10.867-13.229 14.346a125.46 125.46 0 0 1-13.917-32c-.087-.253-.13-.51-.215-.768zm16.022 35.65c0-.043 0-.043.042-.086 0-.086 1.5-9.277 12.5-14.861a24.117 24.117 0 0 1 12.843-2.792c1.718.108 3.403.514 4.982 1.2a.607.607 0 0 0 .258.086 65.385 65.385 0 0 0 14.217 13.916 31.214 31.214 0 0 0-8.891 5.713c-4.639 4.252-9.75 11.811-8.891 24.1a111.837 111.837 0 0 1-13.014-10.61 93.256 93.256 0 0 1-14.047-16.666zm83.326 47.505a127.022 127.022 0 0 1-22.936-4.338 55.557 55.557 0 0 1 11.167-33.2 106.053 106.053 0 0 0 23.71 3.951c1.031.043 2.061.086 3.006.129a95.03 95.03 0 0 0-1.8 34.018c-4.39.056-8.779-.131-13.148-.56z" fill="#1a1a1a"/><path d="M100.492 100.555c-.215.043-.43.086-.6.129l.258.9a109.952 109.952 0 0 0 12.841 27.617 25.176 25.176 0 0 1 15.72-2.191 97.716 97.716 0 0 1-10.652-21.518 23.849 23.849 0 0 1-.558-1.633c-.258-.211-6.057-5.323-17.009-3.304zm47.59 45.615a29.503 29.503 0 0 0-9.879 5.97 27.237 27.237 0 0 0-3.006 3.308 66.172 66.172 0 0 0 12.37 8.934 66.41 66.41 0 0 0 14.518 5.454 54.926 54.926 0 0 1 7.43-13.7 94.504 94.504 0 0 1-21.433-9.966zm-11.554 3.993a31.268 31.268 0 0 1 8.891-5.712 62.598 62.598 0 0 1-14.219-13.917c-.086-.042-.172-.042-.257-.085a15.303 15.303 0 0 0-4.983-1.2 23.761 23.761 0 0 0-11.554 2.148 117.803 117.803 0 0 0 2.62 3.779 133.701 133.701 0 0 0 14.217 16.537c.687.644 1.332 1.331 2.062 1.976a28.86 28.86 0 0 1 3.223-3.526zM221.1 158.5c-.171 0-.73.086-1.675.215a1.259 1.259 0 0 1-.9.773 82.618 82.618 0 0 1-16.923 1.5 86.06 86.06 0 0 0-2.061 11.6 57.248 57.248 0 0 0 15.419-4.724c4-1.933 7.946-4.682 9.579-8.72a24.336 24.336 0 0 0-3.439-.644zm-48.922-1.592a55.212 55.212 0 0 0-7.516 13.573c10.48 2.534 21.562 3.779 32.171 2.534a85.014 85.014 0 0 1 2.061-11.984c-.988-.043-1.975-.043-3.006-.129a108.928 108.928 0 0 1-23.71-3.994zM99.2 98.192c.258-.043.559-.129.816-.172 7.689-1.417 13.143.387 16.236 2.019a109.714 109.714 0 0 1-4.166-19.844v-.258a91.927 91.927 0 0 0-11.855-.172c-1.381.07-2.757.213-4.123.43.129.9.257 1.8.386 2.75.536 5.14 1.44 10.236 2.706 15.247z" fill="#FFA91C"/><path d="M123.729 81.1v-.042a2.725 2.725 0 0 0-.172-.559L104.7 24.787a1.5 1.5 0 0 0-.3-.644v-.215a14.454 14.454 0 0 0-3.994-8.633 9.372 9.372 0 0 0 2.749-2.148 8.7 8.7 0 0 0 2.19-4.6 7.885 7.885 0 0 0-.043-2.663 8.824 8.824 0 0 0-.816-2.4 7.376 7.376 0 0 0-1.46-1.976A6.646 6.646 0 0 0 101.05.09a.725.725 0 0 0-.6-.043.974.974 0 0 0-.687 1.117l.042.171c.172.645.387 1.29.559 1.89.173.565.316 1.139.429 1.718.124.524.211 1.055.258 1.59.056.498.071 1 .043 1.5a6.24 6.24 0 0 1-.3 1.5 7.59 7.59 0 0 1-.6 1.546 29.89 29.89 0 0 1-1.546 2.663 14.544 14.544 0 0 0-10.523-2.963 14.775 14.775 0 0 0-9.879 5.326 18.865 18.865 0 0 1-1.546-2.399 10.15 10.15 0 0 1-1.03-2.964 18.881 18.881 0 0 1-.172-1.546 10.328 10.328 0 0 1 0-1.633c0-.558.043-1.159.086-1.76s.085-1.289.085-1.89v-.172a.945.945 0 0 0-.171-.559.944.944 0 0 0-1.289-.17 6.155 6.155 0 0 0-1.589 1.76 9.395 9.395 0 0 0-.988 2.1 8.489 8.489 0 0 0-.387 2.363c0 .823.087 1.644.258 2.448a8.908 8.908 0 0 0 5.455 6.271 14.763 14.763 0 0 0-1.976 9.063c.017.164.06.323.129.472-.038.14-.052.286-.043.43l-7 58.371a2.27 2.27 0 0 0-.043.56v.05c.129 1.29 1.031 2.621 10.308 2.75a1.246 1.246 0 1 0 0-2.492 32.224 32.224 0 0 1-7.087-.6 21.721 21.721 0 0 1 4.124-1.375 145.76 145.76 0 0 1 20.273-3.35 143.131 143.131 0 0 1 20.746-.859c1.374.036 2.74.209 4.08.515a29.875 29.875 0 0 1-5.841 1.8 1.256 1.256 0 0 0 .558 2.45c7.297-1.807 8.671-3.139 8.543-4.639zM88.422 13.233A12.36 12.36 0 0 1 101.78 23.2a19.046 19.046 0 0 0-2.362-.129c-3.27-.034-6.54.124-9.793.472a82.488 82.488 0 0 0-9.707 1.547c-.844.175-1.676.405-2.491.687a12.311 12.311 0 0 1 10.995-12.544z" fill="#1a1a1a"/><path d="M74.764 82.73c2.663-.687 6.013-1.374 9.75-1.976l1.245-54.248c-4.6.687-7.387 1.46-8.2 1.89l-6.66 55.58a34.59 34.59 0 0 1 3.865-1.246z" fill="#fff"/><path d="M267.188 69.328c-5.584-4.166-25.9-13.444-40.375-11.167s-27.188 8.59-27.919 8.59-16.88 9.75-14.9 13.186 27.489 18.17 27.489 18.17l44.37 27.359s24.912 17.31 27.618 17.482c2.706.128 3.994-1.16 5.025-4.167.988-3.006 5.756-23.323.558-42.823-3.954-15.033-21.866-26.63-21.866-26.63z" fill="#FFA91C"/><path d="M212.854 75.987c.773 0 14.56-6.83 30.238-9.32 7.688-1.2 16.88.6 25 3.263-.559-.386-.9-.6-.9-.6-5.584-4.166-25.9-13.444-40.375-11.167s-27.188 8.59-27.919 8.59-16.88 9.75-14.9 13.186c.9 1.546 6.615 5.412 12.585 9.192.937-4.425 15.541-13.144 16.271-13.144z" fill="#fff"/><path d="M228.832 116.7c-8.591-2.835-33.2-8.59-48.665-2.878s-31.784 15.463-38.356 42.651-5.154 45.83.559 69.582 21.175 53.561 39.215 65.287 36.079 2.878 43.811-2.018c7.731-4.854 33.5-26.931 44.97-52.7s16.88-52.4 12.327-73.019c-4.638-20.529-23.237-36.85-53.861-46.905z" fill="#FFA91C"/><path d="M164.662 226.101c-5.713-23.752-7.173-42.393-.559-69.582 6.572-27.188 22.894-36.938 38.356-42.651a36.882 36.882 0 0 1 5.971-1.589c-9.536-1.246-20.188-1.417-28.306 1.589-15.462 5.713-31.784 15.463-38.356 42.651s-5.154 45.83.559 69.582 21.175 53.561 39.215 65.287c11 7.173 21.991 6.658 30.667 4.081a34.704 34.704 0 0 1-8.332-4.081c-17.997-11.724-33.46-41.532-39.215-65.287z" fill="#fff"/><g fill="#1a1a1a"><path d="M201.643 298.992c-.429 0-.9 0-1.331-.043-12.843-.645-25.385-8.591-36.337-22.98-10.008-13.229-18.126-31.011-23.5-51.413-5.24-19.93-6.013-41.32-2.191-60.175 4.124-20.317 13.058-35.865 25.9-44.928 11.812-8.333 27.1-11.253 45.529-8.633 17.138 2.405 32 9.02 37.626 11.768 15.935 7.775 26.115 16.881 32.085 28.606 7.474 14.776 8.161 33.718 2.105 57.9a148.261 148.261 0 0 1-35.178 64.814c-14.942 15.806-31.521 25.084-44.708 25.084zm-4.424-186.54c-12.37 0-22.936 3.049-31.526 9.106-12.285 8.676-20.875 23.666-24.87 43.338-3.736 18.469-2.963 39.43 2.148 59.016 5.2 19.8 13.4 37.754 23.065 50.511 10.437 13.788 22.335 21.39 34.405 21.949 12.627.6 29.078-8.462 44.025-24.225a145.903 145.903 0 0 0 34.576-63.7c13.273-53.045-9.148-72.03-32.815-83.584-5.5-2.663-20.058-9.149-36.852-11.554a93.259 93.259 0 0 0-12.156-.857zm81.48-.171a2.49 2.49 0 1 0 0-4.981 2.49 2.49 0 0 0 0 4.981z"/><path d="M275.22 219.445a.137.137 0 0 1 .043-.086c-.043.086-3.866 7.13-37.755 1.718a1.413 1.413 0 0 0-.945.215 1.383 1.383 0 0 0-.515.859c-.043.215-3.136 20.488-5.5 38.141-1.976.515-7.946 1.675-16.58-.172.516-7.9 1.246-13.744 1.246-13.873a1.25 1.25 0 0 0-.386-1.074 1.148 1.148 0 0 0-1.074-.344 156.81 156.81 0 0 1-24.483.9c-12.542-.515-30.195-2.92-43.123-11.3a1.274 1.274 0 0 0-1.375 2.148c13.444 8.719 31.613 11.167 44.5 11.682 7.753.308 15.519.064 23.237-.73-.3 2.878-.988 9.321-1.331 16.751-.688 13.616-.172 23.968 1.589 30.754a1.281 1.281 0 0 0 1.245.988.73.73 0 0 0 .3-.043 1.27 1.27 0 0 0 .793-.577 1.272 1.272 0 0 0 .152-.969c-2.1-8.333-1.976-21.347-1.374-31.742a46.56 46.56 0 0 0 9.32.988 27.191 27.191 0 0 0 9.02-1.245 1.271 1.271 0 0 0 .816-1.031c2.019-15.291 4.639-32.816 5.369-37.626 35.135 5.412 38.957-2.62 39.3-3.565z"/><path d="M203.404 258.746a2.577 2.577 0 1 0 0-5.155 2.577 2.577 0 0 0 0 5.155zm39.43-25.385a2.663 2.663 0 1 0 0-5.325 2.663 2.663 0 0 0 0 5.325zm-16.536 25.084a2.405 2.405 0 1 0 0-4.81 2.405 2.405 0 0 0 0 4.81zM293.947 64.3a5.007 5.007 0 0 0-4.725 3.394c-4.424 0-10.953.73-16.365 4.51a73.265 73.265 0 0 0-7.258-5.283c-16.021-10.223-33.073-12.886-50.641-7.9-14.3 4.037-25.3 12.2-30.581 16.665a4.688 4.688 0 0 0-1.675 4.037 4.794 4.794 0 0 0 2.233 3.694l96.9 60.434a4.845 4.845 0 0 0 2.535.73 5.138 5.138 0 0 0 1.589-.258 4.725 4.725 0 0 0 2.92-2.878c2.277-6.228 5.8-18.813 4.124-32.858a53.795 53.795 0 0 0-18.126-34.62c4.639-3.006 10.266-3.65 14.174-3.693a4.982 4.982 0 0 0 4.9 4.038 5.034 5.034 0 0 0 5.025-5.026 4.96 4.96 0 0 0-3.105-4.623 4.965 4.965 0 0 0-1.924-.362zm-3.479 44.585a65.425 65.425 0 0 1-.43 17.782c-6.872-7.6-16.794-13.186-20.445-15.076a62.878 62.878 0 0 0 11.425-27.06 51.183 51.183 0 0 1 9.45 24.357zm-11.683-27.23a59.895 59.895 0 0 1-12.156 29.638 1.346 1.346 0 0 0-.214 1.074c.043.185.127.359.245.508.119.148.27.268.442.351.129.086 14.217 6.872 22.12 16.407l.258.258a82.117 82.117 0 0 1-2.964 10.7 2.119 2.119 0 0 1-1.374 1.332 2.242 2.242 0 0 1-1.89-.215L186.309 81.27a2.164 2.164 0 0 1-1.03-1.718 2.111 2.111 0 0 1 .773-1.847 85.607 85.607 0 0 1 11.812-8.42l29.078 19.029a10.622 10.622 0 0 0 5.927 1.76 10.968 10.968 0 0 0 9.02-4.724 10.834 10.834 0 0 0 1.675-8.2 10.708 10.708 0 0 0-4.639-6.958L223.506 59.88c14.088-2.062 27.747 1.03 40.718 9.32a61.877 61.877 0 0 1 14.561 12.456z"/></g><path d="M13.815 225.5c-1.5 2.749-.816 9.75 1.632 12.327 2.491 2.577 6.829 4.768 7.044 4.381s3.823-12.971 3.823-12.971l5.97-12.113c.043.044-11.384-4.552-18.469 8.376z" fill="#FFA91C"/><path d="M13.815 225.501c-1.5 2.749-.816 9.75 1.632 12.327 2.491 2.577 6.829 4.768 7.044 4.381.086-.129.644-1.976 1.289-4.252-2.878-2.577-8.677-8.719-7.517-16.15a25 25 0 0 0-2.448 3.694z" fill="#fff"/><path d="M77.684 254.838c-.215.687-6.443 19.243-4.037 19.328 2.448.086 10.695-18.6 11.21-20.616s6.658-23.925 6.658-23.925.988-7.173-.559-5.927c-1.503 1.246-9.062 17.224-13.272 31.14z" fill="#FFA91C"/><path d="M218.215 206.942c17.079 0 30.925-13.846 30.925-30.925 0-17.08-13.846-30.925-30.925-30.925s-30.925 13.845-30.925 30.925c0 17.079 13.846 30.925 30.925 30.925z" fill="#1a1a1a"/><path d="M228.145 159.141a19.209 19.209 0 0 0-14.59-1.892 19.207 19.207 0 0 0-11.654 8.979c-.3.516-.73 1.332-1.117 2.148-.228.19-.393.445-.472.73 0 0-.043.215-.129.559a5.288 5.288 0 0 1-.215.472c-.07.177-.1.368-.086.558a100.14 100.14 0 0 1-40.718 55.406c-15.506 9.965-34.276 10.609-47.29 9.364a114.132 114.132 0 0 1-24.955-5.154 1.26 1.26 0 0 0-1.632.773 1.23 1.23 0 0 0 .333 1.387c.128.111.278.195.44.245a113.55 113.55 0 0 0 19.758 4.6c-2.792 2.147-6.7 6.314-8.634 13.873-2.448 9.45.387 16.064 2.148 18.985a126.07 126.07 0 0 1-23.194-6.7 1.28 1.28 0 0 0-.988 2.362 125.26 125.26 0 0 0 27.919 7.6 132.264 132.264 0 0 0 21.261 1.765c13.52.116 26.94-2.317 39.559-7.173 30.839-12.2 48.75-34.49 58.414-51.026a122.835 122.835 0 0 0 13.616-33.03c2.881-11.258.086-20.321-7.774-24.831zm-13.917.6a16.626 16.626 0 0 1 12.628 1.632c4 2.276 10.008 8.118 6.529 21.605 0 .043-.043.129-.043.172a.747.747 0 0 1-.043.214 1.262 1.262 0 0 0-.086.387c0 .086-.043.129-.043.215a109.79 109.79 0 0 1-6.056 17.653 93.428 93.428 0 0 1-30.024-15.978 92.014 92.014 0 0 0 5.584-15.162c.43-.945 1.117-2.32 1.5-2.964a16.246 16.246 0 0 1 4.234-4.911 16.247 16.247 0 0 1 5.82-2.861zM103.5 270.901l-.773-.129a1.154 1.154 0 0 0-.3-.6c-.043-.086-5.713-6.872-2.75-18.341 2.792-10.78 9.88-13.873 10.18-14 .559.043 1.117.129 1.718.172 3.05.3 6.4.472 9.922.472a90.165 90.165 0 0 0 14.088-1.073c-2.147 2.877-4.9 8.161-4.639 16.321.344 9.75 4.768 15.463 7.431 18.04a125.216 125.216 0 0 1-34.877-.862zm59.36-5.283a99.03 99.03 0 0 1-21.047 5.67c-.043 0-.043-.043-.086-.043-.085-.043-7.774-5.283-8.2-17.568-.387-11.6 5.841-16.622 6.1-16.837.086-.043.129-.129.172-.172a63.881 63.881 0 0 0 18.6-7.044 30.782 30.782 0 0 0 1.46 10.481c1.933 6.013 6.615 13.83 18.083 18.211a122.84 122.84 0 0 1-15.084 7.303zm17.954-9.063c-9.579-3.092-15.807-8.891-18.47-17.181a29.184 29.184 0 0 1-1.245-11.468 94.642 94.642 0 0 0 18.039-15.291 57.618 57.618 0 0 0 25.471 24.054 113.597 113.597 0 0 1-23.797 19.887zm39.172-40.847a121.533 121.533 0 0 1-13.616 18.985 55.7 55.7 0 0 1-25.427-24.1 107.023 107.023 0 0 0 13.572-19.8c.473-.9.945-1.8 1.375-2.706A95.666 95.666 0 0 0 226 204.069a146.614 146.614 0 0 1-6.016 11.64z" fill="#1a1a1a"/><path d="M226.04 203.982A93.87 93.87 0 0 1 195.931 188c-.43.859-.9 1.761-1.375 2.706a103.496 103.496 0 0 1-13.573 19.8 55.494 55.494 0 0 0 25.428 24.1 127.472 127.472 0 0 0 13.616-18.985 144.548 144.548 0 0 0 6.013-11.639z" fill="#fff"/><path d="M204.564 236.669a57.605 57.605 0 0 1-25.47-24.054 94.679 94.679 0 0 1-18.04 15.291 29.202 29.202 0 0 0 1.245 11.468c2.706 8.29 8.934 14.089 18.47 17.181a111.428 111.428 0 0 0 23.795-19.886z" fill="#fff"/><path d="M177.934 258.274c-11.468-4.424-16.193-12.241-18.083-18.211a31.926 31.926 0 0 1-1.46-10.481 63.94 63.94 0 0 1-18.6 7.045c-.043.085-.129.128-.172.171-.258.215-6.486 5.24-6.1 16.837.429 12.285 8.118 17.525 8.2 17.568.043 0 .043.043.086.043a98.335 98.335 0 0 0 21.047-5.67 111.47 111.47 0 0 0 15.082-7.302zm-101.796 5.197a124.566 124.566 0 0 0 23.194 6.7c-1.761-2.921-4.6-9.535-2.148-18.985 1.933-7.559 5.885-11.769 8.634-13.873a109.038 109.038 0 0 1-19.758-4.6.726.726 0 0 0-.215-.086 86.738 86.738 0 0 0-5.111 10.695c-2.491 6.056-4.3 16.494-4.9 20.059.105.015.208.045.304.09z" fill="#fff"/><path d="M99.676 251.83c-2.964 11.469 2.706 18.255 2.749 18.341.158.166.262.375.3.6l.773.129a125.178 125.178 0 0 0 34.877.859c-2.663-2.577-7.087-8.29-7.43-18.04-.258-8.16 2.491-13.444 4.638-16.321a89.794 89.794 0 0 1-14.088 1.073c-3.522 0-6.872-.171-9.922-.472-.558-.043-1.159-.129-1.718-.172-.343.13-7.387 3.223-10.179 14.003zm133.494-67.863a.4.4 0 0 1 .043-.215c.049-.124.078-.254.086-.387a.565.565 0 0 0 .043-.215c0-.042.043-.128.043-.171 3.479-13.487-2.577-19.329-6.529-21.605a16.651 16.651 0 0 0-22.722 6.142c-.386.644-1.073 2.019-1.5 2.964a90.631 90.631 0 0 1-5.584 15.162 93.428 93.428 0 0 0 30.024 15.978 116.711 116.711 0 0 0 6.096-17.653z" fill="#fff"/><path d="M194.513 190.71a103.496 103.496 0 0 1-13.573 19.8 54.23 54.23 0 0 0 9.149 12.5c6.7-8.419 12.5-17.954 15.807-28.091A88.035 88.035 0 0 1 195.888 188c-.43.906-.859 1.808-1.375 2.71zm-34.662 49.31a31.926 31.926 0 0 1-1.46-10.481 63.884 63.884 0 0 1-18.6 7.045c-.043.085-.129.128-.172.171-.258.215-5.971 4.854-6.1 15.42 1.5-.258 3.049-.515 4.553-.816a132.681 132.681 0 0 0 21-5.927c.9-.344 1.761-.688 2.663-1.031a20.194 20.194 0 0 1-1.884-4.381zm2.491-.687a32.297 32.297 0 0 0 1.718 4.123 65.334 65.334 0 0 0 13.315-7.474 67.63 67.63 0 0 0 11.039-10.867 57.43 57.43 0 0 1-9.32-12.5 94.679 94.679 0 0 1-18.04 15.291 29.272 29.272 0 0 0 1.288 11.427zM96.97 252a5.9 5.9 0 0 1 .214-.816c1.933-7.559 5.885-11.769 8.634-13.873a109.037 109.037 0 0 1-19.758-4.6.726.726 0 0 0-.215-.086 86.738 86.738 0 0 0-5.111 10.695 45.309 45.309 0 0 0-1.375 3.909c.859.257 1.76.515 2.663.816A106.409 106.409 0 0 0 96.97 252zm108.883-86.975a19.435 19.435 0 0 0-1.719 2.448c-.386.644-1.073 2.019-1.5 2.964a90.566 90.566 0 0 1-5.584 15.162 85.68 85.68 0 0 0 9.665 6.743 55.602 55.602 0 0 0 2.19-15.978c-.089-3.951-.733-8.204-3.052-11.339zM99.676 251.831c-.043.215-.086.387-.13.6.3.043.645.086.946.129a111.243 111.243 0 0 0 30.453 0c0-7.517 2.577-12.456 4.638-15.162a89.803 89.803 0 0 1-14.088 1.073c-3.522 0-6.872-.171-9.922-.472-.558-.043-1.159-.129-1.718-.172-.343.131-7.387 3.224-10.18 14.004z" fill="#FFA91C"/><path d="M91.772 222.581h-.085a2.16 2.16 0 0 0-.559-.086l-58.457-6.356a2.082 2.082 0 0 0-.73 0c-.086-.043-.129-.086-.215-.086a14.499 14.499 0 0 0-9.535 0 9.709 9.709 0 0 0-.774-3.394 8.682 8.682 0 0 0-3.264-3.908 8.159 8.159 0 0 0-4.939-1.332 9.146 9.146 0 0 0-2.406.473 6.657 6.657 0 0 0-2.147 1.2.799.799 0 0 0-.3.516.92.92 0 0 0 .73 1.074l.172.043c.644.128 1.332.214 1.933.3s1.2.215 1.761.344c.523.112 1.04.255 1.546.429.47.174.928.374 1.375.6.452.246.87.548 1.245.9.418.368.806.769 1.16 1.2a25.97 25.97 0 0 1 1.761 2.535 14.726 14.726 0 0 0-6.443 19.5c-.922.183-1.855.312-2.792.386a10.709 10.709 0 0 1-3.135-.3 9.937 9.937 0 0 1-1.46-.516 15.251 15.251 0 0 1-1.5-.687c-.516-.258-1.032-.515-1.59-.816-.516-.3-1.117-.6-1.675-.9l-.172-.086a.831.831 0 0 0-.558-.043.909.909 0 0 0-.688 1.074 6.91 6.91 0 0 0 .9 2.147 8.372 8.372 0 0 0 1.5 1.762c.596.53 1.26.978 1.975 1.331.74.361 1.518.634 2.32.816a9.272 9.272 0 0 0 4.853-.344 8.966 8.966 0 0 0 3.136-1.932 14.67 14.67 0 0 0 7.345 5.626c.123.049.254.078.386.086h.086a.94.94 0 0 0 .344.215l50 30.925.386.258a.144.144 0 0 1 .086.043h.172c.168.049.34.078.515.086 1.16 0 2.835-1.332 6.185-8.333a1.259 1.259 0 0 0-2.276-1.074 35.258 35.258 0 0 1-3.522 6.185c.035-1.444.193-2.883.472-4.3a142.589 142.589 0 0 1 5.5-19.8 139.168 139.168 0 0 1 7.942-19.141 22.155 22.155 0 0 1 2.191-3.522 31.114 31.114 0 0 1-.816 6.056 1.247 1.247 0 0 0 2.448.473c1.718-7.307 1.074-9.154-.387-9.627zm-62.88-2.405a84.195 84.195 0 0 0-3.695 9.106 86.272 86.272 0 0 0-2.706 9.449 23.95 23.95 0 0 0-.429 2.534 12.27 12.27 0 0 1 7.9-23.151c-.298.559-.642 1.246-1.07 2.062z" fill="#1a1a1a"/><path d="m24.553 242.301 47.633 29.46c.079-1.356.251-2.705.516-4.037.472-2.706 1.288-6.014 2.276-9.664l-48.664-23.968c-1.332 4.381-1.804 7.259-1.761 8.209z" fill="#fff"/></g></svg></g><g transform="translate(298.0 548.0) rotate(-8.253499421716041 181.5 187.5) scale(1.5714285714285714 1.5690376569037656)"><svg width="231" height="239" viewBox="0 0 231 239"><clipPath id="d"><path d="M0 0h230.914v238.759H0z"/></clipPath><g clip-path="url(#d)"><path d="M224.214 139.168c-4.834-2.529-9.419-5.021-13.356-7.425a97.274 97.274 0 0 0 0-24.857c3.95-2.4 8.535-4.9 13.369-7.425a9.715 9.715 0 0 0 4.859-11.114 117.833 117.833 0 0 0-3.626-11.076 9.653 9.653 0 0 0-10.478-6.08c-5.382.807-10.553 1.507-15.138 1.918a95.573 95.573 0 0 0-14.365-19.747c1.794-4.237 4.049-8.946 6.478-13.83a9.675 9.675 0 0 0-2.566-11.834 117.568 117.568 0 0 0-9.507-6.927 9.66 9.66 0 0 0-12.06 1.184c-3.9 3.825-7.688 7.4-11.176 10.416a95.072 95.072 0 0 0-23.174-7.551c-1.035-4.522-1.956-9.693-2.854-15.113a9.622 9.622 0 0 0-8.9-8.073 110.93 110.93 0 0 0-12.509.1 9.692 9.692 0 0 0-8.946 8.086c-.885 5.383-1.807 10.516-2.828 15a95.109 95.109 0 0 0-23.17 7.548c-3.488-3.015-7.276-6.591-11.176-10.416a9.662 9.662 0 0 0-12.06-1.184 117.593 117.593 0 0 0-9.507 6.93 9.68 9.68 0 0 0-2.566 11.837c2.43 4.884 4.684 9.593 6.48 13.83A95.566 95.566 0 0 0 31.07 73.109c-4.585-.411-9.755-1.111-15.138-1.918a9.657 9.657 0 0 0-10.478 6.08A119.326 119.326 0 0 0 1.83 88.347 9.717 9.717 0 0 0 6.69 99.46c4.834 2.529 9.42 5.021 13.368 7.425a97.301 97.301 0 0 0 0 24.857c-3.937 2.4-8.522 4.9-13.356 7.425a9.675 9.675 0 0 0-4.859 11.1 113.606 113.606 0 0 0 3.613 11.077 9.665 9.665 0 0 0 10.478 6.092c5.383-.81 10.553-1.507 15.138-1.918a95.496 95.496 0 0 0 14.366 19.735c-1.795 4.249-4.05 8.958-6.479 13.842a9.678 9.678 0 0 0 2.566 11.836 116.176 116.176 0 0 0 9.507 6.928 9.663 9.663 0 0 0 12.06-1.184c3.9-3.825 7.688-7.4 11.176-10.416a95.147 95.147 0 0 0 23.175 7.551c1.034 4.51 1.956 9.68 2.853 15.1a9.745 9.745 0 0 0 8.958 8.087c4.13.306 8.275.34 12.409.1a9.692 9.692 0 0 0 8.946-8.086c.9-5.457 1.831-10.665 2.866-15.2a95.08 95.08 0 0 0 23.174-7.551c3.488 3.015 7.276 6.591 11.176 10.416a9.661 9.661 0 0 0 12.06 1.184 115.616 115.616 0 0 0 9.507-6.928 9.67 9.67 0 0 0 2.566-11.836c-2.429-4.884-4.684-9.593-6.478-13.842a95.5 95.5 0 0 0 14.365-19.735c4.585.411 9.756 1.108 15.138 1.918a9.665 9.665 0 0 0 10.478-6.092 113.552 113.552 0 0 0 3.613-11.077 9.67 9.67 0 0 0-4.859-11.101zm-108.756 38.4a58.18 58.18 0 0 1-53.756-35.918 58.186 58.186 0 1 1 53.756 35.918z" fill="#FFA91C"/><g fill="#fff"><path d="m97.684 174.798-18.79 33.51a90.083 90.083 0 0 1-4.63-2.04c-3.49 3.01-7.27 6.59-11.17 10.41a9.66 9.66 0 0 1-12.06 1.19 116.213 116.213 0 0 1-9.51-6.93 9.691 9.691 0 0 1-2.57-11.84c2.43-4.88 4.69-9.59 6.48-13.84a95.483 95.483 0 0 1-14.36-19.74c-1.6.15-3.28.33-5.01.53l32.21-57.45a58.25 58.25 0 0 0 39.41 66.2zm85.2-151.985-29.43 52.5a58.192 58.192 0 0 0-77.03.91l41.88-74.7c1.15.01 2.29.05 3.42.11a9.624 9.624 0 0 1 8.9 8.07c.89 5.42 1.82 10.59 2.85 15.11a94.863 94.863 0 0 1 23.17 7.55c3.49-3.01 7.28-6.59 11.18-10.41a9.663 9.663 0 0 1 12.06-1.19c1.01.66 2.01 1.34 3 2.05zM221.5 72.525l-77.79 138.76a93.826 93.826 0 0 1-10.24 2.53c-1.03 4.53-1.97 9.74-2.87 15.2a9.672 9.672 0 0 1-8.94 8.08c-4.134.241-8.28.207-12.41-.1a9.746 9.746 0 0 1-8.96-8.08c-.79-4.77-1.6-9.35-2.49-13.45l21.32-38.02a58.198 58.198 0 0 0 47.79-85.25l20.55-36.66a96.05 96.05 0 0 1 12.38 17.57c4.59-.41 9.76-1.1 15.14-1.91a9.563 9.563 0 0 1 6.52 1.33z"/></g><path d="M116.4 238.757c-2.323 0-4.727-.087-7.253-.263a11.21 11.21 0 0 1-10.335-9.337c-.685-4.138-1.59-9.4-2.62-14.059a96.753 96.753 0 0 1-21.68-7.064c-2.95 2.585-6.353 5.772-10.374 9.714a11.214 11.214 0 0 1-13.934 1.366 118.015 118.015 0 0 1-9.624-7.016 11.234 11.234 0 0 1-2.966-13.668c2.62-5.265 4.56-9.386 6.06-12.866a97.007 97.007 0 0 1-13.44-18.462c-3.79.367-8.3.95-14.078 1.819a11.224 11.224 0 0 1-12.1-7.04c-1.41-3.675-2.63-7.42-3.66-11.22a11.231 11.231 0 0 1 5.615-12.825c5.3-2.774 9.192-4.922 12.441-6.874a98.791 98.791 0 0 1 0-23.295c-3.255-1.949-7.245-4.152-12.456-6.878A11.266 11.266 0 0 1 .381 87.955c1.041-3.8 2.277-7.572 3.672-11.22a11.222 11.222 0 0 1 12.107-7.027c5.758.867 10.268 1.45 14.074 1.817a97.218 97.218 0 0 1 13.438-18.473c-1.5-3.487-3.447-7.6-6.057-12.852a11.238 11.238 0 0 1 2.968-13.673c3.063-2.475 6.3-4.835 9.625-7.013a11.207 11.207 0 0 1 13.934 1.368c4.02 3.94 7.422 7.127 10.373 9.714a96.77 96.77 0 0 1 21.678-7.065c.812-3.692 1.644-8.164 2.6-13.958a11.256 11.256 0 0 1 10.331-9.34c4.222-.273 8.455-.306 12.68-.1A11.185 11.185 0 0 1 132.1 9.458c.684 4.132 1.588 9.387 2.622 14.073a96.786 96.786 0 0 1 21.678 7.067c2.959-2.594 6.362-5.782 10.374-9.715a11.206 11.206 0 0 1 13.934-1.365 119.55 119.55 0 0 1 9.625 7.012 11.236 11.236 0 0 1 2.967 13.668c-2.613 5.252-4.553 9.368-6.058 12.853a97.154 97.154 0 0 1 13.438 18.473c3.809-.368 8.319-.95 14.077-1.818a11.216 11.216 0 0 1 12.1 7.027c1.4 3.65 2.631 7.422 3.67 11.216a11.267 11.267 0 0 1-5.608 12.839c-5.213 2.728-9.2 4.931-12.458 6.879a98.588 98.588 0 0 1 0 23.3c3.253 1.954 7.143 4.1 12.441 6.874a11.23 11.23 0 0 1 5.615 12.824 115.923 115.923 0 0 1-3.661 11.223 11.223 11.223 0 0 1-12.106 7.037c-5.771-.868-10.281-1.45-14.074-1.818a97.038 97.038 0 0 1-13.438 18.462c1.5 3.478 3.438 7.6 6.057 12.865a11.236 11.236 0 0 1-2.967 13.672 118.453 118.453 0 0 1-9.626 7.014 11.209 11.209 0 0 1-13.934-1.369c-4.012-3.935-7.416-7.122-10.373-9.713a96.73 96.73 0 0 1-21.677 7.064c-.821 3.725-1.665 8.261-2.635 14.157a11.143 11.143 0 0 1-3.525 6.484 11.142 11.142 0 0 1-6.805 2.856 89.753 89.753 0 0 1-5.353.158zm-42.133-33.995c.223.001.442.05.643.144a93.777 93.777 0 0 0 22.81 7.432 1.504 1.504 0 0 1 1.184 1.139c1.138 4.963 2.132 10.725 2.87 15.19a8.218 8.218 0 0 0 7.587 6.835c4.063.301 8.142.335 12.209.1a8.148 8.148 0 0 0 7.558-6.834c1.064-6.468 1.98-11.327 2.883-15.289a1.498 1.498 0 0 1 1.186-1.14 93.716 93.716 0 0 0 22.808-7.432 1.507 1.507 0 0 1 1.623.221c3.174 2.742 6.853 6.17 11.246 10.478a8.204 8.204 0 0 0 4.918 2.285 8.204 8.204 0 0 0 5.268-1.285 115.098 115.098 0 0 0 9.386-6.839 8.217 8.217 0 0 0 2.168-10c-2.875-5.782-4.946-10.206-6.517-13.928a1.504 1.504 0 0 1 .292-1.613 94.092 94.092 0 0 0 14.14-19.426 1.483 1.483 0 0 1 1.449-.774c4.053.364 8.891.977 15.227 1.93a8.196 8.196 0 0 0 8.854-5.145 112.13 112.13 0 0 0 3.566-10.933 8.212 8.212 0 0 0-4.1-9.378c-5.816-3.044-9.963-5.349-13.443-7.475a1.494 1.494 0 0 1-.7-1.471 95.733 95.733 0 0 0 0-24.473 1.498 1.498 0 0 1 .707-1.473c3.458-2.105 7.733-4.48 13.454-7.473a8.246 8.246 0 0 0 4.1-9.394 117.684 117.684 0 0 0-3.578-10.93 8.202 8.202 0 0 0-8.851-5.135c-6.32.952-11.159 1.565-15.23 1.93a1.483 1.483 0 0 1-1.449-.773 94.113 94.113 0 0 0-14.14-19.438 1.505 1.505 0 0 1-.291-1.616c1.578-3.728 3.65-8.149 6.517-13.912a8.218 8.218 0 0 0-2.165-10 117.048 117.048 0 0 0-9.388-6.84 8.192 8.192 0 0 0-10.187 1c-4.392 4.308-8.071 7.736-11.246 10.481a1.501 1.501 0 0 1-1.624.221 93.652 93.652 0 0 0-22.811-7.438 1.497 1.497 0 0 1-1.185-1.14c-1.142-4.994-2.135-10.748-2.871-15.2a8.162 8.162 0 0 0-7.5-6.82c-4.11-.2-8.229-.167-12.336.1a8.235 8.235 0 0 0-7.556 6.833c-1.045 6.363-1.95 11.158-2.845 15.09a1.5 1.5 0 0 1-1.186 1.141 93.7 93.7 0 0 0-22.81 7.43 1.501 1.501 0 0 1-1.625-.222c-3.165-2.737-6.844-6.165-11.244-10.48a8.2 8.2 0 0 0-10.187-1 116.838 116.838 0 0 0-9.387 6.841 8.221 8.221 0 0 0-2.167 10c2.866 5.76 4.937 10.18 6.517 13.911a1.5 1.5 0 0 1-.29 1.616 94.164 94.164 0 0 0-14.142 19.44 1.485 1.485 0 0 1-1.449.772c-4.068-.365-8.907-.978-15.228-1.929a8.192 8.192 0 0 0-8.853 5.133 119.722 119.722 0 0 0-3.58 10.936 8.249 8.249 0 0 0 4.11 9.39c5.717 2.991 9.992 5.366 13.451 7.472a1.503 1.503 0 0 1 .707 1.473 95.887 95.887 0 0 0 0 24.473 1.501 1.501 0 0 1-.705 1.471c-3.474 2.122-7.62 4.428-13.443 7.475a8.216 8.216 0 0 0-4.106 9.381 112.535 112.535 0 0 0 3.565 10.93 8.2 8.2 0 0 0 8.852 5.148c6.342-.954 11.18-1.567 15.23-1.931a1.49 1.49 0 0 1 1.45.774 94.033 94.033 0 0 0 14.14 19.426 1.5 1.5 0 0 1 .292 1.614c-1.573 3.722-3.645 8.148-6.519 13.927a8.221 8.221 0 0 0 2.166 10 114.82 114.82 0 0 0 9.387 6.84 8.196 8.196 0 0 0 10.188-1c4.4-4.317 8.082-7.745 11.246-10.479.272-.235.62-.364.98-.365z" fill="#1a1a1a"/><path d="M115.458 179.069a59.687 59.687 0 0 1-58.54-71.328 59.684 59.684 0 0 1 118.224 11.644 59.751 59.751 0 0 1-59.684 59.684zm0-116.369a56.686 56.686 0 0 0-11.06 112.281 56.681 56.681 0 0 0 58.191-24.103 56.69 56.69 0 0 0 9.553-31.493A56.748 56.748 0 0 0 115.458 62.7z" fill="#1a1a1a"/></g></svg></g><g transform="translate(670.0 793.0) rotate(-8.253499421716041 80.0 88.5) scale(1.5841584158415842 1.6090909090909091)"><svg width="101" height="110" viewBox="0 0 101 110"><clipPath id="e"><path d="M0 0h100.542v109.023H0z"/></clipPath><g clip-path="url(#e)"><path d="m88.261 54.49.01.02c0-3.833 4.01-8.763 8.565-13.8a8.177 8.177 0 0 0 1.293-9.008 52.899 52.899 0 0 0-4.406-7.555 8.106 8.106 0 0 0-8.37-3.226c-6.654 1.452-12.907 2.528-16.112.677h.03c-3.322-1.913-5.587-7.856-7.67-14.317a8.109 8.109 0 0 0-7.022-5.612 52.76 52.76 0 0 0-8.879.03 8.107 8.107 0 0 0-6.978 5.638c-2.066 6.483-4.256 12.435-7.46 14.293l.01-.03c-3.32 1.92-9.6.908-16.235-.516a8.11 8.11 0 0 0-8.374 3.279 53.121 53.121 0 0 0-4.41 7.7 8.108 8.108 0 0 0 1.391 8.866c4.584 5.033 8.638 9.912 8.638 13.6l-.01-.02c0 3.834-4.01 8.764-8.564 13.8a8.176 8.176 0 0 0-1.294 9.008 52.99 52.99 0 0 0 4.406 7.555 8.107 8.107 0 0 0 8.37 3.227c6.653-1.453 12.907-2.529 16.111-.679h-.03c3.322 1.915 5.587 7.858 7.671 14.318a8.117 8.117 0 0 0 7.022 5.613c2.955.24 5.926.23 8.88-.028a8.11 8.11 0 0 0 6.977-5.638c2.066-6.485 4.256-12.436 7.46-14.295l-.01.03c3.322-1.92 9.6-.907 16.236.517a8.109 8.109 0 0 0 8.373-3.279 53.12 53.12 0 0 0 4.41-7.7 8.105 8.105 0 0 0-1.39-8.86c-4.584-5.037-8.639-9.916-8.639-13.609zm-37.99 18.68a18.66 18.66 0 1 1 0-37.32 18.66 18.66 0 0 1 0 37.32z" fill="#FFA91C"/><g fill="#fff"><path d="m45.381 72.517-10.46 19.12a10.7 10.7 0 0 0-3.65-4.22h.03c-2.77-1.6-7.85-1.01-13.48.13l14.79-27.02a18.662 18.662 0 0 0 12.77 11.99zm27.34-49.99-9.93 18.15a18.653 18.653 0 0 0-16.98-4.29L61.65 7.437c2.071 6.4 4.331 12.26 7.621 14.16h-.03a8.347 8.347 0 0 0 3.48.93zm22.14 3.309-44.68 81.68c-1.4 0-2.81-.05-4.22-.17a8.06 8.06 0 0 1-6.72-4.84l16.49-30.16a18.648 18.648 0 0 0 12.51-22.86l15.42-28.2c.56-.12 1.12-.24 1.69-.36a8.086 8.086 0 0 1 8.37 3.22c.39.56.77 1.12 1.14 1.69z"/></g><path d="M50.233 109.023c-1.469 0-2.936-.058-4.39-.177a9.561 9.561 0 0 1-8.328-6.647c-1.946-6.029-4.14-11.835-6.992-13.477a1.398 1.398 0 0 1-.143-.094c-3.177-1.617-10.76.039-14.87.937a9.563 9.563 0 0 1-9.92-3.833 54.59 54.59 0 0 1-4.53-7.768A9.643 9.643 0 0 1 2.594 67.3c4.247-4.7 8.178-9.5 8.178-12.792v-.138c-.153-3.554-5.4-9.319-8.244-12.437a9.565 9.565 0 0 1-1.64-10.51 54.729 54.729 0 0 1 4.535-7.916 9.573 9.573 0 0 1 9.923-3.893c6.2 1.33 12.32 2.331 15.17.685.059-.034.12-.064.182-.09 2.733-1.8 4.83-7.813 6.588-13.33A9.566 9.566 0 0 1 45.568.206 54.6 54.6 0 0 1 54.7.177a9.565 9.565 0 0 1 8.327 6.646c1.946 6.03 4.14 11.835 6.993 13.479.05.029.099.06.145.095 3.176 1.615 10.76-.041 14.867-.939a9.565 9.565 0 0 1 9.92 3.833 54.527 54.527 0 0 1 4.531 7.769 9.644 9.644 0 0 1-1.535 10.659c-4.247 4.7-8.176 9.494-8.176 12.793 0 .048-.002.096-.007.144.161 3.555 5.406 9.314 8.244 12.43A9.571 9.571 0 0 1 99.65 77.6a54.915 54.915 0 0 1-4.536 7.915 9.561 9.561 0 0 1-9.922 3.893c-6.192-1.332-12.32-2.335-15.169-.688-.06.035-.122.065-.186.092-2.73 1.8-4.829 7.812-6.586 13.328a9.564 9.564 0 0 1-8.277 6.677 54.335 54.335 0 0 1-4.74.206zM32.25 86.26c3.407 2.13 5.644 7.343 8.121 15.017a6.572 6.572 0 0 0 5.716 4.579c2.871.233 5.757.224 8.626-.027a6.576 6.576 0 0 0 5.68-4.6c2.06-6.465 4.384-12.959 8.136-15.136a1.48 1.48 0 0 1 .266-.121c3.55-1.857 9.168-1.187 17.027.5a6.572 6.572 0 0 0 6.825-2.664 51.801 51.801 0 0 0 4.285-7.481 6.574 6.574 0 0 0-1.14-7.221c-4.569-5.017-9.03-10.278-9.03-14.615 0-.07.005-.138.015-.207.124-4.031 3.524-8.584 8.948-14.577a6.653 6.653 0 0 0 1.052-7.355 51.63 51.63 0 0 0-4.282-7.341 6.575 6.575 0 0 0-6.822-2.621c-6.634 1.447-13.426 2.68-17.18.51a1.474 1.474 0 0 1-.2-.138c-3.408-2.132-5.642-7.344-8.119-15.017a6.574 6.574 0 0 0-5.715-4.578 51.243 51.243 0 0 0-8.627.027 6.575 6.575 0 0 0-5.679 4.6c-2.06 6.466-4.385 12.96-8.137 15.137a1.518 1.518 0 0 1-.263.12c-3.55 1.86-9.172 1.186-17.029-.5A6.576 6.576 0 0 0 7.9 25.216 51.703 51.703 0 0 0 3.611 32.7a6.574 6.574 0 0 0 1.141 7.221c4.568 5.017 9.03 10.277 9.03 14.614a1.9 1.9 0 0 1-.013.2c-.118 4.032-3.52 8.585-8.95 14.586a6.66 6.66 0 0 0-1.052 7.358 51.573 51.573 0 0 0 4.282 7.34 6.576 6.576 0 0 0 6.82 2.621c6.636-1.447 13.427-2.68 17.183-.511.07.038.135.082.197.131z" fill="#1a1a1a"/><path d="M50.272 74.672a20.16 20.16 0 1 1 20.16-20.16 20.182 20.182 0 0 1-20.16 20.16zm0-37.32a17.16 17.16 0 1 0 17.16 17.16 17.18 17.18 0 0 0-17.16-17.16z" fill="#1a1a1a"/></g></svg></g></svg>